# xmcd
# 
# Track frame offsets:
#     150
#     15313
#     35393
#     50096
#     66926
#     87391
#     110772
#     131166
#     146037
#     162180
#     179095
#     202639
#     218169
# 
# Disc length: 3162
# 
# Revision: 1
# Processed by: cddbd v1.5.2PL0 Copyright (c) Steve Scherf et al.
# Submitted via: fre:ac v1.0.31
# 
DISCID=be0c580d
DTITLE=Mighty Mike Schermer - Blues In Good Hands
DYEAR=2015
DGENRE=Blues
TTITLE0=Baby Don't Stop
TTITLE1=Heaven's On The Other Side
TTITLE2=It's A Pleasure
TTITLE3=One Tear At A Time
TTITLE4=World Gone Crazy
TTITLE5=Blues In Good Hands
TTITLE6=Wait-On-Me Woman
TTITLE7=Most People
TTITLE8=Barkin' Up The Wrong Tree
TTITLE9=Take My Hand
TTITLE10=Stop Crying
TTITLE11=Baby Be Kind
TTITLE12=Hear You Call Him Baby
EXTD=
EXTT0=
EXTT1=
EXTT2=
EXTT3=
EXTT4=
EXTT5=
EXTT6=
EXTT7=
EXTT8=
EXTT9=
EXTT10=
EXTT11=
EXTT12=
PLAYORDER=
